/* XPM */
static char *_eb6baa616554242b564977669fef6cb[] = {
/* columns rows colors chars-per-pixel */
"32 32 34 1 ",
"  c None",
". c #B5A286",
"X c #B7A689",
"o c #B9A78A",
"O c #BCAC8B",
"+ c #C2B28E",
"@ c #C4B591",
"# c #C7B992",
"$ c #CABC93",
"% c #CABF9A",
"& c #CDC196",
"* c #CFC399",
"= c #D0C497",
"- c #D1C69A",
"; c #D5CB9C",
": c #D8CF9E",
"> c #DAD19F",
", c #D6CDA3",
"< c #D9CFA1",
"1 c #DDD4A3",
"2 c #DFD8A5",
"3 c #DED6A9",
"4 c #DFD8A9",
"5 c #E1D9A6",
"6 c #E3DCAA",
"7 c #E5DEB0",
"8 c #E6E0AE",
"9 c #E8E2AF",
"0 c #E7E1B1",
"q c #E9E4B3",
"w c #ECE8B6",
"e c #ECE7B8",
"r c #EEEAB9",
"t c #F0ECBD",
/* pixels */
"            &&==%$$=            ",
"         #$$--;<<<;;==$         ",
"       ##$*165060767>:=##       ",
"      @++<45647880q066>;##      ",
"     @+#;56688qwwww77976:##     ",
"    ++&;666689wttwtww997>-+#    ",
"   @O-;66qe08qqwwwttww655;##$   ",
"  $OO*1e8qwq0q00wwqw99955>;+#&  ",
"  @X&;699tr816609889996665>&+$  ",
" $XO>688qrww00052688655555>:@+$ ",
" +.$5888wq965606>>56886562>>-$$ ",
" ++;2656651>15611>>2>>665252>-$ ",
"++-6611111>>111511;1>>1156765;#$",
"O+>80q076111311,14<11>1696555:$$",
"o&156666860qet430qeq85>515>55>=$",
"o;6166466688q066114086>11555>;$#",
"O:2>255512666161106116116511>;&#",
"+5>25855565564<16477<<55666611=#",
"+5>>5955565155116043q61660665;##",
"$;>>2888516806607<47377166565;$$",
" ;1>12256144646qq763746655555:$ ",
" =;1112566865567e00866665>>56=$ ",
" $=>>2556688966800866609>>556$$ ",
"  #;2>25568888wweeq666665>>5-+  ",
"  O$>5>1568889w9qw985515>>5:O+  ",
"   #-55156q88w9wwww98511151#+   ",
"    $>1151668999wq99651<>>#+    ",
"     $;><115555688665>:1:$+     ",
"      #$;13455445555611;$#      ",
"       o@%;51654255516,&#       ",
"         O+$-<146441<,;         ",
"            @$,,3,*&            "
};
