/* XPM */
static char *a36d879ddf97433cf1ba69f051affbeb[] = {
/* columns rows colors chars-per-pixel */
"80 80 54 1 ",
"  c None",
". c #9A8679",
"X c #9F8D7E",
"o c #A58E7E",
"O c #A7917F",
"+ c #A79681",
"@ c #AA9682",
"# c #AD9A83",
"$ c #B19E84",
"% c #B5A386",
"& c #B8A687",
"* c #B6A489",
"= c #B9A788",
"- c #BBAB8B",
"; c #BFB08D",
": c #BDAE91",
"> c #BFB191",
", c #C0AF8C",
"< c #C2B38E",
"1 c #C7B88F",
"2 c #C3B591",
"3 c #C6B992",
"4 c #CABD93",
"5 c #CABC99",
"6 c #CEC196",
"7 c #CEC399",
"8 c #D0C597",
"9 c #D1C69A",
"0 c #D5CA9C",
"q c #D8CE9E",
"w c #DAD19F",
"e c #D3C7A0",
"r c #D7CDA1",
"t c #D8CEA1",
"y c #D9CFA9",
"u c #DDD5A2",
"i c #DFD8A4",
"p c #DED6A9",
"a c #DFD8A9",
"s c #E0D7A4",
"d c #E1D9A6",
"f c #E3DDAA",
"g c #E5DEB1",
"h c #E7E1AE",
"j c #E8E2AF",
"k c #E7E1B2",
"l c #EAE5B3",
"z c #EDE8B6",
"x c #EBE6B9",
"c c #EEEABA",
"v c #F1EDBD",
"b c #F2EEC0",
"n c #F4F1C2",
"m c #F8F6C9",
/* pixels */
"                                 13843097644311                                 ",
"                             348899e079978767777444                             ",
"                          2448989999899599966996847441                          ",
"                        34775794223335476664447800866774                        ",
"                      1445532225eussffffhhhhduwq8899084441                      ",
"                    34333<*29sfllffflfffjljjhhhjlhs887874373                    ",
"                  ;45411<3tfgglssddjxlsdfllaiahjchffdu7464133<                  ",
"                 <343<,4afduuslspuflxgfffllaaczzxfdaaddw864323<                 ",
"               -2332==4wffrr8ahfpudgljjhdjlfhzzclfdddhdddw816311<               ",
"              <332===3qwdfuuafhfpudfjjhjjjlhhzjzlffhjjhdsdsq443231              ",
"             222<&=160wdffsudlhhffgljlzlljzzjjzzfffhhjjfddfhs4<2341             ",
"            223-&-189wwddddafhllllllzzzzzzzzzzzjlgjfhlffffffds3<3321            ",
"           3>3--76<akpufdfhffhjjflllcvvczvczzzzzllxjljfffglfquq4<113<           ",
"          <23==8u36wigqpffhjhhhjlljzcccvvzczzcvccccllffxxvldq0qw4<1431          ",
"         3-3==7uu<qdfftfffdfhhhkjjlllczcccczzcvvvvzjlcvvxlhhd09904-2441         ",
"        6;2=&8ud84dccgfxczgfffhhlllxjlzzcccccvvczzzvbbclfsdddw0888<<4441        ",
"        61-O8www6qjc0qhcnnvvcfpallllljllcccccclzznnnvhddddwwffsq886O1881        ",
"       416O;8qw88izvqdihlcvnnnbkffhlllhlzcclklbnnclfddhjjduqfjfuq881O1888       ",
"      6>1OOO6886wlzvijlljjlllllccxkffhkljlllcnnlfdfjjzjjjddwfusuww81111886      ",
"      331O618860jzzvajllvvzhauiflcccllkfdkcnckffjlzxlzjhfhfdffduiww88OO888      ",
"     422O-16086hzzlchhlzvnvjfiq0wuffgflxcvlfiflzzzljjjjhhddhddddwww86,;1696     ",
"     35%O,68wwqdjzzzhhlcnvvzlfwuaddtplbclkafffllljjhjjdhhhddffddisiw66,O;66     ",
"    43;+O66qwhssuihlhhzvvzzczlffffcccfawahlbcfiiffhhjjdhdddhffddswww86,O%374    ",
"    24#o-18wsdhjhfiihhcnczcvczkflbxfuwuuwuafcccfduddhdddddfddfddswswq861-=66    ",
"   321o#,10udhjlljjjlzvvlllzlzcclfffhjffiwwquazczjdiiiddsshdhhswwdsdsw861%163   ",
"   ;3%o-18wddjllljllzzvzjhlcvlfaddlllhdduwwwwwiahzzzjdiwwsddhdssdwwwww868,<74   ",
"  322##,4qdddhhhhhjllzjhlcckiwwhaslzldfauuwwiiiuwsdjzzzjdwshdhhwwiiwwdw698,744  ",
"  23=$=18sddhdhhhhhjfflccaq0wwwdtfdlzfdfqqwqruuuiwswwhjzchsddddsdiiwwww870<384  ",
"  23&=<1qwddddddiwwhhjli0qwwwiiwrpfalfasawwqwwqhwwiwwwifzfifhdiddiuuwwur80<374  ",
" 322<127wwuddddddwwhjwwwuuwwwwwiuufuuuuufiuqw00hwdwiiwwwwsidddiiuuiuafkhuq44446 ",
" <<=-470wwwwwuuwihwwiiiiiuwwwiwwuuufuuauiwwwiwwwwiiiwwwsswssiiisafgkgffd0871184 ",
" <<=<4pxzkauwwwwwwddiiidiuuwwwwdpuwwudduwiiwwwwwsiiwwwwwiwwswiihkllhiwwfdw8<144 ",
" <<=48qlkccbbgfutqruuuuaiwwwqqqwrwruiifiaiq0qqwiiidiuwwwiwuafllllhfffuwaawq3184 ",
"--==48uffgglxbbnbxgauuwqwiwq099r90eyurwi97pu96358000uiiiwifkkhlfdufhlfwudqw41481",
"==-<7qwupafkgffklxcxllkuwwrypaflkkkkkf6;7pvckgupfhdq77qiuadffiiaduwwifkadaw8<144",
"--;48uusffpppafhklkfklzuapgglxvnnnncf72pcccvccxxlljffuuwqufuuuufdsduuuffuu00<481",
"&&36qawuidhhffsafffffjfdxvvvvvvvnncf8egccccllvcccczlzlw80qfuuufduuuwwfaddu401383",
"#=46txfafadddfdfiffafzauhfjllhdjcvcr9lxxlr50hlzvcczjjlhwuwfauufuuiauuhuuud883143",
"#=46ulftadffffuauafffludjhdfjhlccck0kcxfq0t76qahlkhdifdwuwuawfifuuuuufuuuw87811<",
"#&46ufsuuuufiffhkffdhhwhzjhddhzhhhu0gxr6runbr90iffffdhdiwuqfuifisduuuuwwuw4481<1",
"O%79wuuwwuafffffiufafuwudiidjhddfh0ulnr6uwiczhr0udddddddiiudiiaadduuduqwqu447111",
"O&00uuuiuuuuuadffaaufuwuiihhhidddf9wlvrquwfcblfu8qsdddddwuuuffaauwuqdqwwuu83811<",
"o&8qfu0wuuaudffdauadfuffhddiidddfi8kck7wuuuilbchu00wiiuwwuuwfffdufdsawuwswq00141",
"O%0alh0wusdfffdfdudhgqfiwiwuihhhhd0ua70ifiuw0hcblfq40wuaffdwfdfduffsuwuwwuuf014<",
"#-qiliwuwuufffghiaulhqaflhdiidllffu08wwqfclu06ucnvlf98uaflfufffpffffjfdfddt7<441",
"$<wdiuq9wudfhffiuauffudiihdiuwuifhfdiiiuhvnzlu45fbbcky4uflksffkfjlxxzldhd838<34<",
"#3qdfdiwuuuffkkhafuhfwfduwiiiiuwuiddwwwuihllczi039lnbfu9wflfflcxzcjfddfhd440<13;",
" 779uuuuuufhlzlkfiizfulclhiuihkfdiwidddduwuuhczlg53gbxfp9ufufxljdsdddddfd488<61 ",
" 779ddwqqwuudfjlljjljwwidzzfhhhzlfuufllclu067azlxxu39xbgf94tdffddsdddddhd8w1341 ",
" 706dddwwwwwussddddjjwqq80hzcccllhfffllcncha037hcvvft9gvvxutffjfddidddddiqw1764 ",
" 4w4sdsswwuusdddswwsidiw08wifaffwauahfklzcbbzf969gmbvf9tbbgtddddsisiddddsww1646 ",
"  w78dswwwuuwssssdiddddiwdzw6efcr6kuuffhcaacvvzhe3ygffa8tlbgsddsiwwsddddii8164  ",
"  003uwswwwissssdddddhdiwzzdwzck8aba7lklcf67wzvnbgu00udfswhsudduwwssffhdss8666  ",
"  3u<8swiwwiswwsdddfhdhihvhhijk7ubg0xcknncblhiwlbbvfsfffhhdsdwwuswssfdhds8O616  ",
"   r43uuwiiidsdsddfhjfjhsshhhiiuua6pnaucxxbnvvjw0ssddffjhjhhdwusswsssfhhi1161   ",
"   2q<0usuwiwwswdddfhfdhhhhjjhhdfauukafhfuufjjjhfffffjjljzhhsuswsswssfhhi1661   ",
"    q16wwswswwwsdffddddddhhhjjjjghhfdhjzzjhhhdhdfhhjhhhhjjhhwswiuuwwufhh0383    ",
"    50;8usswssisdffdddddhhhhjlljlllhllllzzllljjddffjhhdhhjhdwwwwuwwwsfhd3242    ",
"     941wuswssssddhdiidhdhjhjljjhhllzzlzzvczzljhiidfhhhhhhdsiwwwwwwwdhhq$=3     ",
"     -8;8wuuwsswwwddddddhdjhhjhdhjlljzjzzcczzzzjffiihdhhshdsiwwiuwwufjs<#<3     ",
"      56<qwwssswwwdddwdhhhhhhhfhhjlljzjzjcczzjjjfdddhdwwihddwwwwuwwsff4$-3      ",
"      O011wwwiiwwwwdsddhdhjjhhhhjjlljjjjjjzzzzzjhdddssdwiddiwiiswsddd9$$33      ",
"       ;8<8wwsiwwwwwdddhjjjjhhjjjlzjjjzljzzzzjjzjfddsssswwwiwwwsssdsq-#23       ",
"        681wsdddswhdwdidjlzljljlllzljjlzjzzzzzjzzjjjhhsdwswidiqwsdsq<@,<        ",
"        +974uddddupuauuufhjljljhlljjllllzcczjzzlzjhddsswuuwuuutqsfq1$<33        ",
"         %r78uwdwftsfuuuddhljjhhjjjjjjlzzczzjlzlllhhhwdwwuaqsuq0qa7%<38         ",
"          *u70uwuudsaufsuidfhhhdhjjfhjlzzzzjjlljjhhhhwwhuwrtwsduw8%232          ",
"           -q98wuuuauuftfwudddhdffhfdjjlljzjhhhhhhdswsdwtuq00udw4-<3<           ",
"            >q96qsduwuttfuuaddddddddddfjhjhhhhdddiiihiwwtudqtqq3=321            ",
"             -q930usut9ruuwfddiddsdidddddhhdhddifdfiwhw00tfdu03-531             ",
"              #7037quw0uudrpuudfffdddsaaddhiwdddauiiiqqw0udu8<2943              ",
"               .204<7uuudutudddafdudhsffsshiddidfaiihituds03233<3               ",
"                 %99128afsuuffdufsuddfuadiaaaaufdu0ufhffa8<5822                 ",
"                  .>91250dddfsftaddddpuuiiiafuuhauuflfsq88r833                  ",
"                    #252=29affddiffdadfudduiiualgfpautufau73                    ",
"                     X@242--38tpdhhfwfffhhfahfhau99uggfr787                     ",
"                        *:353223679q0upadfautttpgggte774                        ",
"                          -*-258970rrpgglkxlkllap8239e                          ",
"                             %*:*:5erpggggfye5-%:57                             ",
"                                 5552555>>2>>5e                                 "
};
